<?xml version="1.0" encoding="UTF-8"?>
<!-- Uploaded to: SVG Find, www.svgrepo.com, Generator: SVG Find Mixer Tools -->
<svg fill="#000000" width="800px" height="800px" version="1.1" viewBox="144 144 512 512" xmlns="http://www.w3.org/2000/svg">
 <g>
  <path d="m295.04 452.48h209.92c40.578 0 73.473 40.578 73.473 73.473v20.992c0 40.578-32.895 73.473-73.473 73.473h-209.92c-40.578 0-73.473-40.578-73.473-73.473v-20.992c0-40.578 32.895-73.473 73.473-73.473z"/>
  <path d="m284.73 298.67c0.91797 29.965 13.465 58.391 34.98 79.266 21.516 20.871 50.312 32.551 80.289 32.562 3.4961 0 6.9805-0.21094 10.496-0.52344 1.0508-0.09375 2.0977-0.21875 3.1484-0.34766 2.5547-0.30859 5.0859-0.69531 7.5977-1.1641 0.95703-0.17969 1.9102-0.32422 2.8555-0.52344 3.2656-0.69141 6.4961-1.5117 9.6875-2.4883 0.69141-0.21094 1.3633-0.46094 2.0977-0.69141 2.75-0.89062 5.4688-1.8789 8.1562-2.9805l1.7539-0.73438v-0.003907c6.2227-2.6406 12.207-5.8008 17.895-9.4492 0.28516-0.1875 0.44141-0.48438 0.71484-0.69141 12.168-8.2148 22.672-18.66 30.953-30.785 0.45703-0.45312 0.87109-0.94922 1.2383-1.4805 2.7578-4.375 5.2109-8.9336 7.3477-13.645 7.5547-15.57 11.492-32.645 11.512-49.949v-0.24219c0-1.1445-0.14844-2.2578-0.1875-3.3906-0.91797-29.961-13.465-58.391-34.98-79.262-21.516-20.875-50.309-32.551-80.285-32.562-3.4961 0-6.9688 0.21094-10.434 0.52344-1.0508 0.09375-2.1523 0.23047-3.2227 0.35547-2.5078 0.29297-4.9961 0.68359-7.4727 1.1328-1.0508 0.1875-2.0273 0.34766-3.0234 0.55469-3.2031 0.69922-6.3789 1.5156-9.5195 2.4453-0.85156 0.26172-1.6797 0.57812-2.5312 0.85938-2.5195 0.82812-5.0156 1.7305-7.4961 2.7383-0.76562 0.31641-1.543 0.62891-2.2969 0.96484v0.007812c-6.2031 2.6367-12.172 5.7969-17.844 9.4453-12.898 8.7656-24.008 19.91-32.727 32.844-2.8594 4.5273-5.4023 9.2461-7.6094 14.129-5.7109 11.906-9.3203 24.711-10.664 37.848 0 0.53516 0 1.1016-0.082031 1.6484-0.28516 3.2852-0.50391 6.6016-0.50391 9.9609v0.24219c-0.03125 1.1406 0.11328 2.2539 0.15625 3.3867z"/>
 </g>
</svg>